<?xml version="1.0" standalone="no"?>
<!DOCTYPE svg PUBLIC "-//W3C//DTD SVG 20010904//EN"
 "http://www.w3.org/TR/2001/REC-SVG-20010904/DTD/svg10.dtd">
<svg version="1.0" xmlns="http://www.w3.org/2000/svg"
 width="260.000000pt" height="260.000000pt" viewBox="0 0 260.000000 260.000000"
 preserveAspectRatio="xMidYMid meet">
<metadata>
Created by potrace 1.14, written by Peter Selinger 2001-2017
</metadata>
<g transform="translate(0.000000,260.000000) scale(0.100000,-0.100000)"
fill="#000000" stroke="none">
<path d="M229 1743 c-1 -5 -1 -12 0 -17 1 -4 -4 -14 -10 -22 -9 -11 -8 -14 2
-14 10 0 11 -3 3 -8 -12 -7 -27 -70 -26 -105 1 -9 -3 -15 -7 -13 -4 3 -7 -5
-8 -17 0 -12 -4 -38 -8 -57 -4 -19 -8 -43 -9 -52 0 -10 -4 -18 -9 -18 -4 0 -6
-4 -2 -9 3 -5 2 -12 -2 -14 -5 -3 -8 -25 -8 -50 0 -25 -3 -43 -7 -41 -5 3 -8
-8 -8 -25 0 -16 -5 -33 -10 -36 -8 -5 -8 -11 -1 -19 6 -8 7 -16 1 -22 -5 -5
-11 -22 -14 -39 -2 -16 -5 -30 -6 -30 -2 0 -4 -9 -5 -20 -2 -11 -6 -33 -10
-50 -4 -16 -7 -38 -8 -47 -1 -10 -6 -18 -12 -18 -5 0 -3 -5 5 -10 11 -7 11
-10 2 -10 -7 0 -11 -4 -7 -9 3 -5 1 -12 -5 -16 -12 -7 -14 -26 -2 -24 25 4 41
-4 47 -22 5 -16 13 -20 31 -16 15 3 21 0 16 -7 -20 -32 -10 -36 84 -36 68 0
94 3 95 13 0 6 2 21 5 32 2 11 5 29 7 40 2 11 6 26 11 33 4 7 2 12 -6 12 -9 0
-9 3 2 10 8 5 11 10 6 10 -5 0 -3 7 4 15 7 8 10 21 7 29 -3 8 -3 17 1 20 7 8
13 33 15 64 0 12 5 22 10 22 5 0 6 7 3 16 -4 10 0 15 12 13 9 -1 19 0 22 1 14
5 70 4 70 -2 0 -4 13 -3 28 2 16 4 36 4 45 -2 10 -5 17 -5 17 0 0 12 70 9 70
-3 0 -5 12 3 27 20 16 18 21 31 14 33 -8 3 -6 9 6 19 10 8 12 12 6 8 -8 -4
-13 0 -13 10 0 10 5 13 12 9 7 -4 8 -3 4 4 -4 6 -2 21 4 32 10 19 6 23 -20 22
-3 0 -11 6 -18 14 -10 11 -10 14 0 14 9 0 9 3 0 12 -8 8 -15 8 -26 -1 -12 -10
-14 -7 -9 20 4 25 1 31 -10 26 -7 -3 -20 -1 -27 3 -8 5 -22 4 -32 -1 -12 -7
-18 -6 -18 1 0 6 -5 8 -12 4 -14 -9 -90 -6 -100 4 -4 4 -1 21 6 37 l13 31 213
-1 c116 0 216 3 222 6 5 3 11 19 14 35 8 55 12 163 6 162 -4 -1 -20 4 -36 11
-23 9 -26 14 -16 26 10 12 -33 14 -314 15 -179 0 -327 -3 -327 -7z"/>
<path d="M974 1742 c-6 -4 -10 -15 -8 -24 1 -10 -1 -18 -5 -18 -8 0 -11 -16
-13 -72 0 -21 -6 -38 -11 -38 -18 0 6 -18 28 -22 11 -2 20 -10 20 -18 0 -9 9
-15 23 -14 18 1 22 -3 20 -19 -3 -19 2 -21 62 -22 36 -1 73 3 83 8 16 8 18 6
11 -15 -4 -12 -7 -31 -6 -40 0 -10 -3 -18 -8 -18 -4 0 -7 -11 -5 -25 1 -14 -1
-25 -5 -25 -5 0 -7 -12 -5 -26 2 -18 -1 -24 -12 -20 -9 4 -11 2 -6 -7 11 -18
13 -37 3 -37 -5 0 -7 -9 -5 -20 3 -14 -2 -20 -13 -20 -12 0 -13 -3 -5 -8 12
-7 11 -18 -3 -74 -3 -13 -7 -30 -9 -38 -2 -8 -4 -25 -4 -38 -1 -13 -4 -21 -8
-19 -5 3 -9 -9 -9 -26 -2 -32 -7 -60 -19 -98 -5 -16 -1 -19 24 -19 17 0 31 -4
31 -10 0 -5 -5 -10 -11 -10 -5 0 -7 -4 -4 -10 3 -5 17 -10 31 -10 21 0 24 -4
19 -20 -6 -19 -2 -20 85 -20 85 0 91 1 99 23 5 12 7 30 5 40 -1 9 1 17 6 17 5
0 7 9 5 20 -2 11 0 22 5 25 4 3 7 13 6 23 -2 9 2 20 8 24 8 5 7 8 -2 8 -7 0
-10 5 -7 10 4 6 12 7 18 3 8 -5 8 -2 0 9 -7 8 -10 18 -6 22 7 6 11 24 15 59 1
9 5 17 8 17 4 0 7 7 7 15 0 8 -5 15 -11 15 -7 0 -7 3 1 8 6 4 13 19 15 34 2
14 9 33 16 41 8 9 9 18 3 21 -5 3 -7 15 -4 26 3 11 10 17 17 13 7 -4 6 -1 -1
9 -7 8 -10 18 -6 22 4 3 9 17 11 29 6 38 7 42 15 55 5 7 3 12 -5 12 -10 0 -10
2 0 9 8 4 13 11 13 15 -1 3 -1 10 -1 14 0 5 59 8 132 8 l131 -1 4 25 c2 14 4
31 5 38 1 6 4 12 7 12 3 0 7 12 9 28 1 15 3 36 5 46 1 12 -6 22 -18 25 -13 4
-20 14 -19 29 1 21 0 22 -17 6 -17 -15 -18 -14 -14 15 l4 31 -357 0 c-196 0
-362 -4 -368 -8z"/>
<path d="M1823 1735 c-7 -8 -13 -17 -13 -20 0 -3 6 -3 13 1 6 4 3 -3 -8 -16
-11 -13 -14 -20 -7 -16 6 4 12 2 12 -3 0 -6 -3 -11 -7 -11 -5 0 -9 -12 -10
-26 0 -15 -5 -29 -10 -33 -5 -3 -8 -27 -8 -53 0 -25 -3 -44 -7 -42 -7 5 -12
-51 -5 -59 1 -2 -3 -10 -9 -18 -6 -8 -10 -22 -9 -31 2 -10 -1 -18 -6 -18 -6 0
-7 -4 -4 -10 3 -5 3 -16 -1 -22 -5 -7 -9 -19 -10 -28 0 -8 -5 -33 -9 -55 -4
-22 -8 -48 -8 -57 -1 -10 -4 -18 -8 -18 -4 0 -5 -8 -2 -19 3 -10 0 -22 -7 -26
-8 -5 -7 -11 2 -23 8 -10 9 -13 1 -9 -6 4 -14 3 -18 -3 -3 -5 0 -10 7 -10 8 0
9 -3 3 -8 -6 -4 -10 -14 -10 -22 1 -8 -2 -19 -6 -25 -3 -5 -7 -17 -7 -25 -2
-26 -10 -64 -17 -81 -4 -11 0 -18 14 -22 12 -3 21 0 21 6 0 7 4 6 9 -2 5 -8 7
-21 4 -28 -4 -10 0 -13 13 -11 13 2 19 -3 19 -17 0 -19 7 -20 95 -20 84 0 95
2 94 18 -1 9 2 17 8 17 5 0 6 5 3 10 -3 6 -3 16 2 23 4 6 8 28 9 47 0 19 6 45
13 58 7 13 10 30 7 37 -2 7 -2 16 2 19 6 7 12 30 14 54 1 7 7 11 15 8 7 -3 13
-1 13 5 0 6 7 6 20 -1 11 -6 20 -7 20 -3 0 5 12 8 28 7 15 -1 26 -6 25 -12 -2
-6 6 -31 16 -56 11 -24 17 -47 14 -50 -4 -3 -1 -6 5 -6 6 0 9 -7 6 -15 -4 -8
-1 -15 4 -15 6 0 9 -9 7 -20 -2 -12 0 -18 6 -14 6 3 9 -2 7 -11 -2 -11 4 -19
16 -21 21 -3 38 -23 30 -36 -3 -4 4 -8 15 -8 19 0 26 -10 22 -32 0 -5 44 -8
99 -8 93 0 100 1 100 20 0 11 -5 20 -11 20 -5 0 -8 4 -4 9 3 5 0 15 -7 23 -7
7 -15 24 -16 38 -2 14 -8 27 -13 28 -5 2 -7 8 -3 13 3 5 1 9 -5 9 -6 0 -7 7
-4 17 5 11 3 14 -6 8 -10 -5 -11 -2 -6 14 4 14 2 21 -6 21 -7 0 -10 3 -7 6 4
3 0 17 -7 31 -8 15 -12 30 -9 35 3 4 1 8 -5 8 -6 0 -8 7 -4 15 3 9 8 13 11 11
3 -3 11 -1 19 5 7 6 13 8 13 3 0 -5 4 -4 8 2 4 5 24 20 45 33 20 12 35 27 31
32 -3 5 -1 9 5 9 9 0 54 65 57 83 1 4 3 10 4 15 1 4 2 10 1 14 0 4 4 19 9 33
7 18 6 25 -3 25 -8 0 -8 3 2 9 10 7 10 10 1 13 -10 3 -10 9 -1 26 9 18 9 22
-1 20 -8 -2 -12 4 -10 15 2 9 -3 17 -9 17 -7 0 -10 3 -6 6 3 4 -7 20 -24 36
-16 16 -26 35 -22 41 4 7 0 8 -11 4 -10 -4 -15 -3 -11 3 3 6 1 10 -4 10 -6 0
-11 4 -11 10 0 15 -33 50 -48 50 -7 0 -10 5 -6 12 5 7 2 9 -9 5 -9 -3 -18 0
-21 9 -3 8 -17 14 -31 14 -15 0 -24 4 -20 10 4 7 -74 10 -227 10 -188 -1 -235
-3 -245 -15z m309 -241 c6 -4 8 -3 5 3 -4 6 6 10 23 9 17 -1 30 -5 30 -11 0
-7 3 -7 8 0 11 15 32 17 32 3 0 -9 3 -9 12 0 19 19 26 14 21 -15 -2 -16 -5
-33 -5 -40 -1 -7 -5 -10 -9 -8 -4 3 -9 -2 -13 -10 -3 -8 -12 -15 -21 -15 -8 0
-15 -3 -15 -7 0 -5 -35 -8 -78 -8 -74 0 -78 1 -80 23 -1 14 2 21 8 17 7 -4 9
2 5 18 -4 14 -2 28 4 32 6 3 9 10 6 14 -5 9 51 5 67 -5z"/>
</g>
</svg>
