<svg xmlns="http://www.w3.org/2000/svg" width="1952" height="932" viewBox="0 0 1952 932">
  <g id="Group_3" data-name="Group 3" transform="translate(8 -1652)">
    <ellipse id="Ellipse_17" data-name="Ellipse 17" cx="36.5" cy="37" rx="36.5" ry="37" transform="translate(486 2260)" fill="#fc6fff" opacity="0.4"/>
    <circle id="Ellipse_18" data-name="Ellipse 18" cx="59.5" cy="59.5" r="59.5" transform="translate(1406 2042)" fill="#fc6fff" opacity="0.4"/>
    <circle id="Ellipse_19" data-name="Ellipse 19" cx="26.5" cy="26.5" r="26.5" transform="translate(1616 2208)" fill="#fc6fff" opacity="0.4"/>
    <circle id="Ellipse_20" data-name="Ellipse 20" cx="20.5" cy="20.5" r="20.5" transform="translate(1055 2276)" fill="#fc6fff" opacity="0.4"/>
    <circle id="Ellipse_23" data-name="Ellipse 23" cx="13.5" cy="13.5" r="13.5" transform="translate(1289 2357)" fill="#fc6fff" opacity="0.4"/>
    <circle id="Ellipse_24" data-name="Ellipse 24" cx="13.5" cy="13.5" r="13.5" transform="translate(657 2557)" fill="#fc6fff" opacity="0.4"/>
    <circle id="Ellipse_27" data-name="Ellipse 27" cx="13.5" cy="13.5" r="13.5" transform="translate(70 2247)" fill="#fc6fff" opacity="0.4"/>
    <circle id="Ellipse_25" data-name="Ellipse 25" cx="13.5" cy="13.5" r="13.5" transform="translate(1789 2557)" fill="#fc6fff" opacity="0.4"/>
    <circle id="Ellipse_26" data-name="Ellipse 26" cx="34" cy="34" r="34" transform="translate(1840 2012)" fill="#fc6fff" opacity="0.4"/>
    <circle id="Ellipse_21" data-name="Ellipse 21" cx="55" cy="55" r="55" transform="translate(862 2068)" fill="#fc6fff" opacity="0.4"/>
    <circle id="Ellipse_22" data-name="Ellipse 22" cx="25.5" cy="25.5" r="25.5" transform="translate(114 2458)" fill="#fc6fff" opacity="0.4"/>
    <circle id="Ellipse_46" data-name="Ellipse 46" cx="65.5" cy="65.5" r="65.5" transform="translate(-8 1766)" fill="#fc6fff" opacity="0.4"/>
    <circle id="Ellipse_48" data-name="Ellipse 48" cx="52" cy="52" r="52" transform="translate(1743 1737)" fill="#fc6fff" opacity="0.4"/>
    <circle id="Ellipse_49" data-name="Ellipse 49" cx="13.5" cy="13.5" r="13.5" transform="translate(1139 1971)" fill="#fc6fff" opacity="0.4"/>
    <ellipse id="Ellipse_50" data-name="Ellipse 50" cx="83" cy="82.5" rx="83" ry="82.5" transform="translate(450 1652)" fill="#fc6fff" opacity="0.4"/>
    <circle id="Ellipse_51" data-name="Ellipse 51" cx="46" cy="46" r="46" transform="translate(684 1903)" fill="#fc6fff" opacity="0.4"/>
    <circle id="Ellipse_53" data-name="Ellipse 53" cx="46" cy="46" r="46" transform="translate(1509 1828)" fill="#fc6fff" opacity="0.4"/>
    <circle id="Ellipse_54" data-name="Ellipse 54" cx="26.5" cy="26.5" r="26.5" transform="translate(882 1682)" fill="#fc6fff" opacity="0.4"/>
    <circle id="Ellipse_55" data-name="Ellipse 55" cx="26.5" cy="26.5" r="26.5" transform="translate(450 2015)" fill="#fc6fff" opacity="0.4"/>
    <circle id="Ellipse_56" data-name="Ellipse 56" cx="26.5" cy="26.5" r="26.5" transform="translate(211 1715)" fill="#fc6fff" opacity="0.4"/>
    <circle id="Ellipse_58" data-name="Ellipse 58" cx="13.5" cy="13.5" r="13.5" transform="translate(1917 1737)" fill="#fc6fff" opacity="0.4"/>
    <circle id="Ellipse_59" data-name="Ellipse 59" cx="13.5" cy="13.5" r="13.5" transform="translate(1669 2067)" fill="#fc6fff" opacity="0.4"/>
    <circle id="Ellipse_60" data-name="Ellipse 60" cx="13.5" cy="13.5" r="13.5" transform="translate(1904 2357)" fill="#fc6fff" opacity="0.4"/>
    <circle id="Ellipse_61" data-name="Ellipse 61" cx="13.5" cy="13.5" r="13.5" transform="translate(1289 2151)" fill="#fc6fff" opacity="0.4"/>
    <circle id="Ellipse_62" data-name="Ellipse 62" cx="13.5" cy="13.5" r="13.5" transform="translate(835 2445)" fill="#fc6fff" opacity="0.4"/>
    <circle id="Ellipse_63" data-name="Ellipse 63" cx="13.5" cy="13.5" r="13.5" transform="translate(336 2357)" fill="#fc6fff" opacity="0.4"/>
    <circle id="Ellipse_64" data-name="Ellipse 64" cx="13.5" cy="13.5" r="13.5" transform="translate(151 1971)" fill="#fc6fff" opacity="0.4"/>
    <circle id="Ellipse_65" data-name="Ellipse 65" cx="13.5" cy="13.5" r="13.5" transform="translate(965 1893)" fill="#fc6fff" opacity="0.4"/>
    <circle id="Ellipse_66" data-name="Ellipse 66" cx="25.5" cy="25.5" r="25.5" transform="translate(1277 1803)" fill="#fc6fff" opacity="0.4"/>
    <circle id="Ellipse_67" data-name="Ellipse 67" cx="25.5" cy="25.5" r="25.5" transform="translate(1328 2484)" fill="#fc6fff" opacity="0.4"/>
    <circle id="Ellipse_68" data-name="Ellipse 68" cx="25.5" cy="25.5" r="25.5" transform="translate(705 2235)" fill="#fc6fff" opacity="0.4"/>
    <circle id="Ellipse_69" data-name="Ellipse 69" cx="25.5" cy="25.5" r="25.5" transform="translate(220 2184)" fill="#fc6fff" opacity="0.4"/>
    <circle id="Ellipse_70" data-name="Ellipse 70" cx="55.5" cy="55.5" r="55.5" transform="translate(1111 1678)" fill="#fc6fff" opacity="0.4"/>
  </g>
</svg>
