
                        <svg xmlns="http://www.w3.org/2000/svg" viewBox="0 0 2001 1408">
                            <g id="Groupe_3" data-name="Groupe 3" transform="translate(16 -174)">
                              <circle id="Ellipse_1" data-name="Ellipse 1" cx="110.5" cy="110.5" r="110.5" transform="translate(273 303)" fill="#fc6fff" opacity="0.4"/>
                              <circle id="Ellipse_2" data-name="Ellipse 2" cx="64.5" cy="64.5" r="64.5" transform="translate(592 188)" fill="#fc6fff" opacity="0.4"/>
                              <ellipse id="Ellipse_3" data-name="Ellipse 3" cx="75" cy="74" rx="75" ry="74" transform="translate(572 538)" fill="#fc6fff" opacity="0.4"/>
                              <circle id="Ellipse_4" data-name="Ellipse 4" cx="50.5" cy="50.5" r="50.5" transform="translate(22 267)" fill="#fc6fff" opacity="0.4"/>
                              <circle id="Ellipse_16" data-name="Ellipse 16" cx="65.5" cy="65.5" r="65.5" transform="translate(299 1014)" fill="#fc6fff" opacity="0.4"/>
                              <ellipse id="Ellipse_17" data-name="Ellipse 17" cx="36.5" cy="37" rx="36.5" ry="37" transform="translate(486 1258)" fill="#fc6fff" opacity="0.4"/>
                              <circle id="Ellipse_18" data-name="Ellipse 18" cx="59.5" cy="59.5" r="59.5" transform="translate(1406 1112)" fill="#fc6fff" opacity="0.4"/>
                              <circle id="Ellipse_19" data-name="Ellipse 19" cx="26.5" cy="26.5" r="26.5" transform="translate(1576 1355)" fill="#fc6fff" opacity="0.4"/>
                              <circle id="Ellipse_20" data-name="Ellipse 20" cx="20.5" cy="20.5" r="20.5" transform="translate(1058 1456)" fill="#fc6fff" opacity="0.4"/>
                              <circle id="Ellipse_23" data-name="Ellipse 23" cx="13.5" cy="13.5" r="13.5" transform="translate(1289 1355)" fill="#fc6fff" opacity="0.4"/>
                              <circle id="Ellipse_24" data-name="Ellipse 24" cx="13.5" cy="13.5" r="13.5" transform="translate(657 1555)" fill="#fc6fff" opacity="0.4"/>
                              <circle id="Ellipse_27" data-name="Ellipse 27" cx="13.5" cy="13.5" r="13.5" transform="translate(70 1245)" fill="#fc6fff" opacity="0.4"/>
                              <circle id="Ellipse_25" data-name="Ellipse 25" cx="13.5" cy="13.5" r="13.5" transform="translate(1789 1555)" fill="#fc6fff" opacity="0.4"/>
                              <circle id="Ellipse_26" data-name="Ellipse 26" cx="34" cy="34" r="34" transform="translate(1816 1190)" fill="#fc6fff" opacity="0.4"/>
                              <circle id="Ellipse_21" data-name="Ellipse 21" cx="55" cy="55" r="55" transform="translate(862 1135)" fill="#fc6fff" opacity="0.4"/>
                              <circle id="Ellipse_22" data-name="Ellipse 22" cx="25.5" cy="25.5" r="25.5" transform="translate(114 1456)" fill="#fc6fff" opacity="0.4"/>
                              <circle id="Ellipse_5" data-name="Ellipse 5" cx="102" cy="102" r="102" transform="translate(-16 824)" fill="#fc6fff" opacity="0.4"/>
                              <circle id="Ellipse_6" data-name="Ellipse 6" cx="64.5" cy="64.5" r="64.5" transform="translate(508 790)" fill="#fc6fff" opacity="0.4"/>
                              <circle id="Ellipse_7" data-name="Ellipse 7" cx="37.5" cy="37.5" r="37.5" transform="translate(774 875)" fill="#fc6fff" opacity="0.4"/>
                              <circle id="Ellipse_8" data-name="Ellipse 8" cx="64.5" cy="64.5" r="64.5" transform="translate(100 497)" fill="#fc6fff" opacity="0.4"/>
                              <circle id="Ellipse_9" data-name="Ellipse 9" cx="45" cy="45" r="45" transform="translate(291 696)" fill="#fc6fff" opacity="0.4"/>
                              <circle id="Ellipse_10" data-name="Ellipse 10" cx="64.5" cy="64.5" r="64.5" transform="translate(784 317)" fill="#fc6fff" opacity="0.4"/>
                              <circle id="Ellipse_11" data-name="Ellipse 11" cx="64.5" cy="64.5" r="64.5" transform="translate(1262 174)" fill="#fc6fff" opacity="0.4"/>
                              <circle id="Ellipse_12" data-name="Ellipse 12" cx="64.5" cy="64.5" r="64.5" transform="translate(1743 317)" fill="#fc6fff" opacity="0.4"/>
                              <ellipse id="Ellipse_13" data-name="Ellipse 13" cx="89" cy="88.5" rx="89" ry="88.5" transform="translate(1807 709)" fill="#fc6fff" opacity="0.4"/>
                              <circle id="Ellipse_14" data-name="Ellipse 14" cx="44.5" cy="44.5" r="44.5" transform="translate(1727 939)" fill="#fc6fff" opacity="0.4"/>
                              <circle id="Ellipse_15" data-name="Ellipse 15" cx="64.5" cy="64.5" r="64.5" transform="translate(1159 950)" fill="#fc6fff" opacity="0.4"/>
                              <ellipse id="Ellipse_33" data-name="Ellipse 33" cx="96" cy="95" rx="96" ry="95" transform="translate(1058 372)" fill="#fc6fff" opacity="0.4"/>
                              <circle id="Ellipse_34" data-name="Ellipse 34" cx="34" cy="34" r="34" transform="translate(1432 871)" fill="#fc6fff" opacity="0.4"/>
                              <circle id="Ellipse_35" data-name="Ellipse 35" cx="64.5" cy="64.5" r="64.5" transform="translate(1538 580)" fill="#fc6fff" opacity="0.4"/>
                              <ellipse id="Ellipse_36" data-name="Ellipse 36" cx="75" cy="74" rx="75" ry="74" transform="translate(952 738)" fill="#fc6fff" opacity="0.4"/>
                              <circle id="Ellipse_37" data-name="Ellipse 37" cx="34" cy="34" r="34" transform="translate(913 562)" fill="#fc6fff" opacity="0.4"/>
                              <circle id="Ellipse_38" data-name="Ellipse 38" cx="64.5" cy="64.5" r="64.5" transform="translate(1250 596)" fill="#fc6fff" opacity="0.4"/>
                              <ellipse id="Ellipse_39" data-name="Ellipse 39" cx="75" cy="74" rx="75" ry="74" transform="translate(1425 349)" fill="#fc6fff" opacity="0.4"/>
                            </g>
                          </svg>
                          
